<?xml version="1.0" encoding="utf-8"?>
<!-- Generator: Adobe Illustrator 15.1.0, SVG Export Plug-In . SVG Version: 6.00 Build 0)  -->
<!DOCTYPE svg PUBLIC "-//W3C//DTD SVG 1.1//EN" "http://www.w3.org/Graphics/SVG/1.1/DTD/svg11.dtd">
<svg version="1.1" id="Layer_1" xmlns="http://www.w3.org/2000/svg" xmlns:xlink="http://www.w3.org/1999/xlink" x="0px" y="0px"
	 width="145.333px" height="85px" viewBox="0 0 145.333 85" enable-background="new 0 0 145.333 85" xml:space="preserve">
<g opacity="0.05">
	<g>
		<defs>
			<rect id="SVGID_1_" x="-0.833" width="147" height="85"/>
		</defs>
		<clipPath id="SVGID_2_">
			<use xlink:href="#SVGID_1_"  overflow="visible"/>
		</clipPath>
		<g clip-path="url(#SVGID_2_)">
			<g>
				<polygon fill="#605D59" points="121.417,128 109.042,106.5 96.667,85 109.042,63.5 121.417,42 146.167,42 170.917,42 
					183.292,63.5 195.667,85 183.292,106.5 170.917,128 146.167,128 				"/>
			</g>
			<g>
				<g>
					<polygon fill="#605D59" points="128.458,115.672 119.604,100.336 110.75,85 119.604,69.664 128.458,54.328 146.167,54.328 
						163.875,54.328 172.729,69.664 181.583,85 172.729,100.336 163.875,115.672 146.167,115.672 					"/>
				</g>
				<g>
					<path fill="#FFFFFF" d="M183.893,85l-18.864-32.672h-37.726L108.44,85l18.863,32.672h37.726L183.893,85z M113.059,85
						l16.554-28.672h33.107L179.274,85l-16.554,28.672h-33.107L113.059,85z"/>
				</g>
			</g>
			<g>
				<rect x="144.167" y="30.874" fill="#FFFFFF" width="4" height="108.253"/>
			</g>
			<g>
				
					<rect x="92.04" y="83.001" transform="matrix(0.866 0.5 -0.5 0.866 62.0833 -61.6956)" fill="#FFFFFF" width="108.253" height="4"/>
			</g>
			<g>
				
					<rect x="144.166" y="30.874" transform="matrix(0.4999 0.8661 -0.8661 0.4999 146.7115 -84.0836)" fill="#FFFFFF" width="4.001" height="108.253"/>
			</g>
		</g>
		<g clip-path="url(#SVGID_2_)">
			<g>
				<polygon fill="#605D59" points="47.917,170.5 35.542,149 23.167,127.5 35.542,106 47.917,84.5 72.667,84.5 97.417,84.5 
					109.792,106 122.167,127.5 109.792,149 97.417,170.5 72.667,170.5 				"/>
			</g>
			<g>
				<rect x="70.667" y="73.374" fill="#FFFFFF" width="4" height="108.253"/>
			</g>
		</g>
		<g clip-path="url(#SVGID_2_)">
			<g>
				<polygon fill="#605D59" points="-25.583,128 -37.958,106.5 -50.333,85 -37.958,63.5 -25.583,42 -0.833,42 23.917,42 
					36.292,63.5 48.667,85 36.292,106.5 23.917,128 -0.833,128 				"/>
			</g>
			<g>
				<g>
					<polygon fill="#605D59" points="-18.542,115.672 -27.396,100.336 -36.25,85 -27.396,69.664 -18.542,54.328 -0.833,54.328 
						16.875,54.328 25.729,69.664 34.583,85 25.729,100.336 16.875,115.672 -0.833,115.672 					"/>
				</g>
				<g>
					<path fill="#FFFFFF" d="M36.893,85L18.029,52.328h-37.726L-38.56,85l18.863,32.672h37.726L36.893,85z M-33.941,85
						l16.554-28.672H15.72L32.274,85L15.72,113.672h-33.107L-33.941,85z"/>
				</g>
			</g>
			<g>
				<rect x="-2.833" y="30.874" fill="#FFFFFF" width="4" height="108.253"/>
			</g>
			<g>
				
					<rect x="-54.96" y="83.001" transform="matrix(0.866 0.5 -0.5 0.866 42.3888 11.8048)" fill="#FFFFFF" width="108.253" height="4"/>
			</g>
			<g>
				
					<rect x="-2.834" y="30.874" transform="matrix(0.4999 0.8661 -0.8661 0.4999 73.1997 43.2289)" fill="#FFFFFF" width="4.001" height="108.253"/>
			</g>
		</g>
		<g clip-path="url(#SVGID_2_)">
			<g>
				<polygon fill="#605D59" points="121.417,43 109.042,21.5 96.667,0 109.042,-21.5 121.417,-43 146.167,-43 170.917,-43 
					183.292,-21.5 195.667,0 183.292,21.5 170.917,43 146.167,43 				"/>
			</g>
			<g>
				<g>
					<polygon fill="#605D59" points="128.458,30.672 119.604,15.336 110.75,0 119.604,-15.336 128.458,-30.672 146.167,-30.672 
						163.875,-30.672 172.729,-15.336 181.583,0 172.729,15.336 163.875,30.672 146.167,30.672 					"/>
				</g>
				<g>
					<path fill="#FFFFFF" d="M183.893,0l-18.864-32.672h-37.726L108.44,0l18.863,32.672h37.726L183.893,0z M113.059,0l16.554-28.672
						h33.107L179.274,0L162.72,28.672h-33.107L113.059,0z"/>
				</g>
			</g>
			<g>
				<rect x="144.167" y="-54.126" fill="#FFFFFF" width="4" height="108.253"/>
			</g>
			<g>
				
					<rect x="92.04" y="-1.999" transform="matrix(0.866 0.5 -0.5 0.866 19.5831 -73.0836)" fill="#FFFFFF" width="108.253" height="4"/>
			</g>
			<g>
				
					<rect x="144.166" y="-54.126" transform="matrix(0.4999 0.8661 -0.8661 0.4999 73.0954 -126.5904)" fill="#FFFFFF" width="4.001" height="108.253"/>
			</g>
		</g>
		<g clip-path="url(#SVGID_2_)">
			<g>
				<polygon fill="#605D59" points="47.917,85.5 35.542,64 23.167,42.5 35.542,21 47.917,-0.5 72.667,-0.5 97.417,-0.5 109.792,21 
					122.167,42.5 109.792,64 97.417,85.5 72.667,85.5 				"/>
			</g>
			<g>
				<g>
					<polygon fill="#605D59" points="54.958,73.172 46.104,57.836 37.25,42.5 46.104,27.164 54.958,11.828 72.667,11.828 
						90.375,11.828 99.229,27.164 108.083,42.5 99.229,57.836 90.375,73.172 72.667,73.172 					"/>
				</g>
				<g>
					<path fill="#FFFFFF" d="M110.393,42.5L91.529,9.828H53.803L34.94,42.5l18.863,32.672h37.726L110.393,42.5z M39.559,42.5
						l16.554-28.672H89.22L105.774,42.5L89.22,71.172H56.113L39.559,42.5z"/>
				</g>
			</g>
			<g>
				<rect x="70.667" y="-11.626" fill="#FFFFFF" width="4" height="108.253"/>
			</g>
			<g>
				
					<rect x="18.54" y="40.501" transform="matrix(0.866 0.5 -0.5 0.866 30.9859 -30.6394)" fill="#FFFFFF" width="108.253" height="4"/>
			</g>
			<g>
				
					<rect x="70.666" y="-11.626" transform="matrix(0.4999 0.8661 -0.8661 0.4999 73.1476 -41.6807)" fill="#FFFFFF" width="4.001" height="108.253"/>
			</g>
		</g>
		<g clip-path="url(#SVGID_2_)">
			<g>
				<polygon fill="#605D59" points="-25.583,43 -37.958,21.5 -50.333,0 -37.958,-21.5 -25.583,-43 -0.833,-43 23.917,-43 
					36.292,-21.5 48.667,0 36.292,21.5 23.917,43 -0.833,43 				"/>
			</g>
			<g>
				<g>
					<polygon fill="#605D59" points="-18.542,30.672 -27.396,15.336 -36.25,0 -27.396,-15.336 -18.542,-30.672 -0.833,-30.672 
						16.875,-30.672 25.729,-15.336 34.583,0 25.729,15.336 16.875,30.672 -0.833,30.672 					"/>
				</g>
				<g>
					<path fill="#FFFFFF" d="M36.893,0L18.029-32.672h-37.726L-38.56,0l18.863,32.672h37.726L36.893,0z M-33.941,0l16.554-28.672
						H15.72L32.274,0L15.72,28.672h-33.107L-33.941,0z"/>
				</g>
			</g>
			<g>
				<rect x="-2.833" y="-54.126" fill="#FFFFFF" width="4" height="108.253"/>
			</g>
			<g>
				
					<rect x="-54.96" y="-1.999" transform="matrix(0.866 0.5 -0.5 0.866 -0.1114 0.4168)" fill="#FFFFFF" width="108.253" height="4"/>
			</g>
			<g>
				
					<rect x="-2.834" y="-54.126" transform="matrix(0.4999 0.8661 -0.8661 0.4999 -0.4164 0.7221)" fill="#FFFFFF" width="4.001" height="108.253"/>
			</g>
		</g>
		<g clip-path="url(#SVGID_2_)">
			<g>
				<polygon fill="#605D59" points="47.917,0.5 35.542,-21 23.167,-42.5 35.542,-64 47.917,-85.5 72.667,-85.5 97.417,-85.5 
					109.792,-64 122.167,-42.5 109.792,-21 97.417,0.5 72.667,0.5 				"/>
			</g>
			<g>
				<rect x="70.667" y="-96.626" fill="#FFFFFF" width="4" height="108.253"/>
			</g>
		</g>
	</g>
</g>
</svg>
